HIERARCHY
ROOT Hips
{
	OFFSET 0.000000 0.000000 0.000000 
	CHANNELS 6 Xposition Yposition Zposition Zrotation Yrotation Xrotation
	JOINT LeftUpLeg
	{
		OFFSET 1.363060 -1.794630 0.839290 
		CHANNELS 3 Zrotation Yrotation Xrotation
		JOINT LeftLeg
		{
			OFFSET 2.448110 -6.726130 0.000000 
			CHANNELS 3 Zrotation Yrotation Xrotation
			JOINT LeftFoot
			{
				OFFSET 2.562200 -7.039590 0.000000 
				CHANNELS 3 Zrotation Yrotation Xrotation
				JOINT LeftToeBase
				{
					OFFSET 0.157640 -0.433110 2.322550 
					CHANNELS 3 Zrotation Yrotation Xrotation
					End Site
					{
						OFFSET 0.000000 0.000000 0.000000 
					}
				}
			}
		}
	}
	JOINT RightUpLeg
	{
		OFFSET -1.305520 -1.794630 0.839290 
		CHANNELS 3 Zrotation Yrotation Xrotation
		JOINT RightLeg
		{
			OFFSET -2.542530 -6.985550 0.000000 
			CHANNELS 3 Zrotation Yrotation Xrotation
			JOINT RightFoot
			{
				OFFSET -2.568260 -7.056230 0.000000 
				CHANNELS 3 Zrotation Yrotation Xrotation
				JOINT RightToeBase
				{
					OFFSET -0.164730 -0.452590 2.363150 
					CHANNELS 3 Zrotation Yrotation Xrotation
					End Site
					{
						OFFSET 0.000000 0.000000 0.000000 
					}
				}
			}
		}
	}
	JOINT Spine
	{
		OFFSET 0.028270 2.035590 -0.193380 
		CHANNELS 3 Zrotation Yrotation Xrotation
		JOINT Spine1
		{
			OFFSET 0.056720 2.048850 -0.042750 
			CHANNELS 3 Zrotation Yrotation Xrotation
			JOINT Neck1
			{
				OFFSET -0.054170 1.746240 0.172020 
				CHANNELS 3 Zrotation Yrotation Xrotation
				JOINT Head
				{
					OFFSET 0.104070 1.761360 -0.123970 
					CHANNELS 3 Zrotation Yrotation Xrotation
					End Site
					{
						OFFSET 0.000000 0.000000 0.000000 
					}
				}
			}
			JOINT LeftArm
			{
				OFFSET 3.362410 1.200890 -0.311210 
				CHANNELS 3 Zrotation Yrotation Xrotation
				JOINT LeftForeArm
				{
					OFFSET 4.983000 -0.000000 -0.000000 
					CHANNELS 3 Zrotation Yrotation Xrotation
					JOINT LeftHand
					{
						OFFSET 3.483560 -0.000000 -0.000000 
						CHANNELS 3 Zrotation Yrotation Xrotation
						JOINT LeftHandIndex1
						{
							OFFSET 0.715260 -0.000000 -0.000000 
							CHANNELS 3 Zrotation Yrotation Xrotation
							End Site
							{
								OFFSET 0.000000 0.000000 0.000000 
							}
						}
					}
				}
			}
			JOINT RightArm
			{
				OFFSET -3.136600 1.374050 -0.404650 
				CHANNELS 3 Zrotation Yrotation Xrotation
				JOINT RightForeArm
				{
					OFFSET -5.241900 -0.000000 -0.000000 
					CHANNELS 3 Zrotation Yrotation Xrotation
					JOINT RightHand
					{
						OFFSET -3.444170 -0.000000 -0.000000 
						CHANNELS 3 Zrotation Yrotation Xrotation
						JOINT RightHandIndex1
						{
							OFFSET -0.622530 -0.000000 -0.000000 
							CHANNELS 3 Zrotation Yrotation Xrotation
							End Site
							{
								OFFSET 0.000000 0.000000 0.000000 
							}
						}
					}
				}
			}
		}
	}
}
MOTION
Frames: 7
Frame Time: 0.041667
7.796490 17.974367 18.043145 179.186079 14.633117 -145.467790 -11.062429 -16.260304 -40.769212 -2.479174 10.964739 19.037646 -5.624821 22.847633 12.417335 0.216800 -2.997300 -8.271300 17.711120 12.327186 -25.075369 0.145801 -13.196637 33.155758 2.165296 -9.723320 5.354450 -0.599700 4.957400 -13.787100 4.296101 1.544565 -47.485961 -0.123155 0.924466 1.730173 5.292663 -17.586218 23.971639 2.409700 -8.054000 14.435700 -37.157063 45.587428 101.424227 114.610149 -53.564420 -79.004441 -4.108851 3.547905 -79.071981 -7.125000 0.000000 0.000000 33.681616 -49.606696 98.359564 -121.998716 47.299793 -83.659612 3.400996 -6.502412 -58.667880 7.125000 0.000000 0.000000 
7.776809 17.982198 17.946645 179.112046 14.651004 -145.567546 -11.355542 -16.397309 -40.371821 -2.481834 10.887466 19.020853 -5.710455 22.884682 12.049450 0.213600 -2.975500 -8.210500 17.714021 11.614364 -26.026447 -0.315617 -13.835577 34.888472 1.982954 -9.331020 6.820741 -0.511100 4.582400 -12.721300 4.073709 1.522946 -47.450847 -0.086710 0.946477 1.772521 4.733258 -17.043419 24.757352 2.172600 -7.768800 14.706700 -37.034480 45.382836 101.448720 114.592840 -53.567245 -78.983865 -4.109762 3.545443 -79.060773 -7.125000 0.000000 0.000000 33.875358 -49.713496 98.241170 -121.872715 47.320487 -83.507266 3.356134 -6.507541 -58.624404 7.125000 0.000000 0.000000 
7.758186 17.990662 17.852685 179.020457 14.679292 -145.661759 -11.738791 -16.388108 -40.016590 -2.497296 10.793836 18.985291 -5.726105 22.755350 11.772911 0.209200 -2.944800 -8.125100 17.686536 11.025254 -26.994075 -0.813314 -14.484076 36.648661 1.909622 -9.246881 8.244511 -0.452600 4.316100 -11.967800 3.839311 1.493028 -47.422801 -0.024867 0.964652 1.798909 4.209954 -16.501328 25.554806 1.945300 -7.474800 15.003900 -36.894858 45.159922 101.492501 114.576594 -53.570892 -78.963436 -4.110516 3.541394 -79.044603 -7.125000 0.000000 0.000000 34.081013 -49.792252 98.036311 -121.862204 47.313907 -83.487059 3.349735 -6.505542 -58.574724 7.125000 0.000000 0.000000 
7.741997 17.998704 17.761052 178.941396 14.718212 -145.760326 -12.224646 -16.163250 -39.710257 -2.518144 10.700397 18.982312 -5.678012 22.445047 11.537403 0.212600 -2.968800 -8.192000 17.646183 10.619103 -27.971205 -1.331103 -15.123402 38.343736 1.991928 -9.645088 9.676468 -0.357600 3.841700 -10.631600 3.616735 1.462591 -47.354040 0.041631 0.973701 1.892306 3.749036 -15.963235 26.352121 1.732100 -7.167300 15.320800 -36.765973 44.917922 101.514905 114.608317 -53.565819 -78.988171 -4.110166 3.539720 -79.036086 -7.125000 0.000000 0.000000 34.357898 -49.871506 97.815698 -121.759111 47.325788 -83.369218 3.294612 -6.519721 -58.386721 7.125000 0.000000 0.000000 
7.725385 18.003677 17.669631 178.876468 14.747016 -145.842349 -12.641962 -16.030648 -39.404912 -2.534369 10.616492 18.976106 -5.656563 22.218509 11.279468 0.213800 -2.976500 -8.213400 17.612074 10.193829 -28.936137 -1.865955 -15.743670 40.031403 2.039026 -9.986934 11.117492 -0.272500 3.357900 -9.276900 3.452066 1.447665 -47.305127 0.106458 0.985811 1.955256 3.271396 -15.394172 27.105332 1.516600 -6.852500 15.614400 -36.673456 44.710878 101.534102 114.609471 -53.566184 -78.984898 -4.110408 3.537556 -79.030862 -7.125000 0.000000 0.000000 34.553474 -49.957663 97.663617 -121.656064 47.340280 -83.244768 3.241365 -6.526922 -58.253149 7.125000 0.000000 0.000000 
7.709513 18.007804 17.579586 178.825468 14.765988 -145.913400 -13.058019 -15.865604 -39.127690 -2.549752 10.540683 18.986721 -5.619648 21.955362 11.027913 0.215800 -2.990900 -8.253400 17.583704 9.832760 -29.907660 -2.414438 -16.349072 41.689233 2.116035 -10.444171 12.428195 -0.203600 2.905300 -8.015100 3.341039 1.442553 -47.254925 0.174863 0.993395 2.018844 2.829315 -14.814016 27.830550 1.315700 -6.529400 15.906800 -36.616088 44.517430 101.543762 114.599043 -53.568847 -78.971273 -4.110794 3.535697 -79.031881 -7.125000 0.000000 0.000000 34.728147 -50.041410 97.505727 -121.548621 47.354769 -83.120673 3.191498 -6.535986 -58.078736 7.125000 0.000000 0.000000 
7.694382 18.011613 17.490598 178.791400 14.772384 -145.966205 -13.453111 -15.698054 -38.875968 -2.562564 10.475587 19.013841 -5.580273 21.688084 10.764977 0.218800 -3.011300 -8.310300 17.563799 9.535426 -30.883909 -2.964020 -16.933467 43.308601 2.207362 -10.926842 13.443876 -0.157200 2.554800 -7.041700 3.277409 1.446516 -47.204605 0.241671 0.997579 2.084597 2.439026 -14.230953 28.512318 1.138300 -6.202100 16.190700 -36.587786 44.338316 101.549153 114.575685 -53.574266 -78.945922 -4.111243 3.534233 -79.036169 -7.125000 0.000000 0.000000 34.887303 -50.126370 97.336700 -121.444693 47.367435 -83.003947 3.146724 -6.545309 -57.895373 7.125000 0.000000 0.000000 
